<?xml version="1.0" encoding="utf-8"?>
<!-- Generator: Adobe Illustrator 23.0.1, SVG Export Plug-In . SVG Version: 6.00 Build 0)  -->
<svg version="1.1" id="Layer_1" xmlns="http://www.w3.org/2000/svg" xmlns:xlink="http://www.w3.org/1999/xlink" x="0px" y="0px"
	 viewBox="0 0 152.5 152.5" style="enable-background:new 0 0 152.5 152.5;" xml:space="preserve">
<style type="text/css">
	.st0{fill:#3A4164;stroke:#3A4164;stroke-linejoin:round;stroke-miterlimit:1.4142;}
	.st1{fill:#3A4164;}
	.st2{fill-rule:evenodd;clip-rule:evenodd;fill:#3A4164;}
	.st3{fill-rule:evenodd;clip-rule:evenodd;fill:#F88E9F;}
	.st4{fill:#F88E9F;}
</style>
<g id="ai" transform="matrix(0.640466,0,0,0.640466,172.308,603.555)">
	<g transform="matrix(1.01682,0,0,1.01682,358.777,-137.695)">
		<path class="st4" d="M-433.83-791.26c26.29,0.25,50.21,22.76,50.47,50.47c0.14,44.34,0.14,88.68,0,133.01
			c-0.25,26.29-22.76,50.21-50.47,50.47c-44.34,0.14-88.68,0.14-133.01,0c-26.34-0.25-50.21-23.09-50.47-50.47
			c-0.14-44.34-0.14-88.68,0-133.01c0.25-26.34,23.09-50.21,50.47-50.47C-522.51-791.4-478.17-791.4-433.83-791.26z M-566.5-775.39
			c-18.09,0.06-34.77,15.51-34.95,34.71c-0.13,44.34-0.4,88.69,0,133.03c0.28,17.91,15.61,34.19,34.49,34.49
			c44.42,0.41,88.83,0.41,133.25,0c17.92-0.28,34.2-15.67,34.49-34.49c0.44-44.42,0.44-88.83,0-133.25
			c-0.27-17.87-15.61-34.19-34.49-34.49C-477.98-775.79-522.24-775.39-566.5-775.39z"/>
	</g>
	<g transform="matrix(1,0,0,1,166.254,-342.232)">
		<path class="st3" d="M-257.79-424.95h-17.95v-81.06h17.95V-424.95z M-290.23-424.95h-20.99l-8.37-30.87h-30.63l-6.73,30.87h-19.63
			l30.16-110.03h23.28L-290.23-424.95z M-345.36-472.09h20.97l-10.23-43.19L-345.36-472.09z M-266.77-537.21
			c5.99,0,10.86,4.87,10.86,10.86s-4.87,10.86-10.86,10.86c-5.99,0-10.86-4.87-10.86-10.86S-272.76-537.21-266.77-537.21z"/>
	</g>
</g>
</svg>
