<?xml version="1.0" encoding="UTF-8"?>
<svg width="24px" height="24px" viewBox="0 0 24 24" version="1.1" xmlns="http://www.w3.org/2000/svg" xmlns:xlink="http://www.w3.org/1999/xlink">
    <!-- Generator: Sketch 55 (78076) - https://sketchapp.com -->
    <title>behance</title>
    <desc>Created with Sketch.</desc>
    <g id="Page-1" stroke="none" stroke-width="1" fill="none" fill-rule="evenodd">
        <g id="Artboard" transform="translate(-166.000000, -222.000000)" fill="#3A4164">
            <path d="M175.991071,235.982143 C175.991071,237.016071 175.241071,237.342857 174.319643,237.342857 L171.903571,237.342857 L171.903571,234.508929 L174.367857,234.508929 C175.364286,234.514286 175.991071,234.926786 175.991071,235.982143 L175.991071,235.982143 Z M175.578571,231.573214 C175.578571,230.625 174.844643,230.4 174.030357,230.4 L171.908929,230.4 L171.908929,232.8 L174.196429,232.8 C175.005357,232.8 175.578571,232.446429 175.578571,231.573214 L175.578571,231.573214 Z M182.666071,232.816071 C181.685714,232.816071 181.032143,233.426786 180.967857,234.407143 L184.3,234.407143 C184.208929,233.416071 183.694643,232.816071 182.666071,232.816071 Z M190,224.571429 L190,243.428571 C190,244.848214 188.848214,246 187.428571,246 L168.571429,246 C167.151786,246 166,244.848214 166,243.428571 L166,224.571429 C166,223.151786 167.151786,222 168.571429,222 L187.428571,222 C188.848214,222 190,223.151786 190,224.571429 Z M180.555357,230.196429 L184.723214,230.196429 L184.723214,229.183929 L180.555357,229.183929 L180.555357,230.196429 Z M178.251786,236.105357 C178.251786,234.814286 177.641071,233.7 176.376786,233.341071 C177.298214,232.901786 177.780357,232.392857 177.780357,231.358929 C177.780357,229.3125 176.253571,228.814286 174.491071,228.814286 L169.642857,228.814286 L169.642857,239.1 L174.630357,239.1 C176.5,239.089286 178.251786,238.194643 178.251786,236.105357 L178.251786,236.105357 Z M186.357143,235.3125 C186.357143,233.110714 185.066071,231.273214 182.735714,231.273214 C180.464286,231.273214 178.926786,232.976786 178.926786,235.216071 C178.926786,237.535714 180.389286,239.126786 182.735714,239.126786 C184.514286,239.126786 185.666071,238.328571 186.223214,236.619643 L184.417857,236.619643 C184.219643,237.257143 183.421429,237.589286 182.8,237.589286 C181.6,237.589286 180.973214,236.8875 180.973214,235.698214 L186.341071,235.698214 C186.346429,235.575 186.357143,235.441071 186.357143,235.3125 Z" id="behance"></path>
        </g>
    </g>
</svg>