<?xml version="1.0" encoding="utf-8"?>
<!-- Generator: Adobe Illustrator 23.0.1, SVG Export Plug-In . SVG Version: 6.00 Build 0)  -->
<svg version="1.1" id="Layer_1" xmlns="http://www.w3.org/2000/svg" xmlns:xlink="http://www.w3.org/1999/xlink" x="0px" y="0px"
	 viewBox="0 0 152.36 152.37" style="enable-background:new 0 0 152.36 152.37;" xml:space="preserve">
<style type="text/css">
	.st0{fill:#3A4164;stroke:#3A4164;stroke-linejoin:round;stroke-miterlimit:1.4142;}
	.st1{fill:#3A4164;}
	.st2{fill-rule:evenodd;clip-rule:evenodd;fill:#3A4164;}
	.st3{fill-rule:evenodd;clip-rule:evenodd;fill:#F88E9F;}
	.st4{fill:#F88E9F;}
</style>
<g id="_---" transform="matrix(0.640466,0,0,0.640466,328.265,597.143)">
	<g transform="matrix(1.12221,0,0,1.12221,769.223,-216.487)">
		<path class="st3" d="M-930.2-614.89c0-6.11-2.41-11.96-6.74-16.28c-4.31-4.31-10.16-6.74-16.27-6.74c-40.76,0-125.2,0-165.97,0
			c-6.11,0-11.96,2.43-16.27,6.74c-4.33,4.33-6.74,10.17-6.74,16.28c0,40.76,0,125.19,0,165.97c0,6.09,2.41,11.96,6.74,16.27
			c4.31,4.31,10.16,6.74,16.27,6.74c40.76,0,125.2,0,165.97,0c6.11,0,11.96-2.43,16.27-6.74c4.33-4.31,6.74-10.17,6.74-16.27
			C-930.2-489.7-930.2-574.13-930.2-614.89z"/>
	</g>
	<g transform="matrix(1,0,0,1,-26.9168,-43.1074)">
		<g transform="matrix(1,0,0,1,0,-9.25236)">
			<path class="st1" d="M-404.44-743.96c0.94,1.43,1.42,2.92,1.42,4.47c0,1.54-0.4,2.89-1.19,4.04s-1.89,2-3.27,2.56
				c-1.39,0.56-3,0.59-4.82,0.12c-1.43-0.4-2.74-1.07-3.93-2.03c-1.19-0.94-2.38-1.86-3.56-2.72c-2.78-2.07-5.51-4.13-8.21-6.18
				c-2.7-2.07-5.42-4.12-8.2-6.18c-0.79-0.63-1.77-1.3-2.92-2.03c-1.15-0.71-2.23-1.52-3.27-2.43c-1.03-0.92-1.86-1.92-2.49-3.03
				c-0.63-1.11-0.88-2.34-0.72-3.69c0.32-2.05,1.18-3.67,2.56-4.82c1.39-1.15,2.88-2.31,4.47-3.5c2.69-2.07,5.37-4.16,8.02-6.3
				c2.66-2.14,5.33-4.29,8.03-6.43c1.59-1.27,3.19-2.65,4.82-4.16c1.63-1.5,3.46-2.53,5.53-3.09c1.67-0.4,3.12-0.32,4.4,0.23
				c1.27,0.56,2.26,1.39,2.97,2.5c0.71,1.11,1.12,2.38,1.25,3.8c0.12,1.43-0.18,2.81-0.89,4.17c-0.4,0.79-0.98,1.56-1.73,2.31
				c-0.75,0.75-1.59,1.47-2.49,2.14c-0.92,0.67-1.79,1.29-2.62,1.85c-0.84,0.54-1.52,1.02-2.08,1.42c-2.22,1.74-4.42,3.45-6.6,5.11
				c-2.18,1.67-4.34,3.37-6.48,5.11c3.72,2.53,7.35,5.19,10.87,7.97c3.54,2.78,7.08,5.51,10.65,8.2L-404.44-743.96z"/>
		</g>
		<path class="st1" d="M-355.81-815.09c0.94-1.59,2.13-2.66,3.56-3.2c1.42-0.57,2.85-0.7,4.27-0.43c1.43,0.28,2.69,0.97,3.74,2.08
			c1.07,1.11,1.69,2.58,1.85,4.4c0.08,0.96-0.08,2.04-0.48,3.27c-0.39,1.24-0.85,2.47-1.37,3.69c-0.52,1.23-1.05,2.35-1.6,3.38
			c-0.56,1.03-0.9,1.74-1.07,2.14c-1.19,2.78-2.38,5.53-3.56,8.26c-1.19,2.74-2.38,5.49-3.56,8.26
			c-4.21,9.75-8.38,19.43-12.55,29.06c-4.16,9.63-8.38,19.24-12.65,28.83c-0.63,1.43-1.65,2.44-3.03,3.03
			c-1.39,0.59-2.81,0.74-4.29,0.41c-1.46-0.31-2.78-1.01-3.93-2.08c-1.15-1.07-1.79-2.56-1.95-4.45c-0.17-2.14,0.21-4.08,1.12-5.82
			c0.92-1.74,1.81-3.65,2.67-5.71c1.19-2.78,2.38-5.54,3.56-8.26c1.19-2.74,2.38-5.5,3.58-8.26c0.31-0.72,0.81-1.82,1.48-3.33
			c0.67-1.51,1.41-3.18,2.19-5c0.79-1.82,1.6-3.71,2.44-5.64c0.83-1.95,1.6-3.71,2.31-5.29c0.72-1.59,1.29-2.92,1.73-3.98
			c0.44-1.07,0.66-1.61,0.66-1.61c2.45-5.55,4.87-11.08,7.24-16.58c2.38-5.51,4.76-11,7.14-16.48L-355.81-815.09z"/>
		<g transform="matrix(1,0,0,1,0,-9.28984)">
			<path class="st1" d="M-328-744.91c3.56-2.62,7.08-5.28,10.52-7.97c3.45-2.7,6.96-5.32,10.52-7.85c-2.14-1.74-4.27-3.45-6.42-5.11
				c-2.14-1.67-4.33-3.33-6.55-5c-0.56-0.39-1.24-0.86-2.08-1.42c-0.83-0.56-1.68-1.17-2.56-1.85c-0.86-0.67-1.7-1.37-2.49-2.08
				c-0.8-0.71-1.39-1.47-1.78-2.26c-0.71-1.34-1.03-2.74-0.96-4.16c0.08-1.43,0.45-2.72,1.14-3.87c0.67-1.15,1.64-2.01,2.91-2.61
				c1.27-0.59,2.74-0.7,4.4-0.3c1.42,0.31,2.78,1.01,4.04,2.08c1.27,1.07,2.45,2.04,3.56,2.92c1.82,1.42,3.65,2.85,5.47,4.27
				c1.82,1.43,3.64,2.89,5.46,4.4c1.2,0.94,2.05,1.63,2.56,2.01c0.52,0.4,0.99,0.77,1.43,1.14c0.44,0.35,0.97,0.77,1.6,1.25
				c0.63,0.46,1.59,1.23,2.85,2.25c1.51,1.11,2.88,2.21,4.11,3.28c1.23,1.06,2.04,2.56,2.44,4.45c0.23,1.34,0.04,2.6-0.59,3.74
				c-0.63,1.15-1.45,2.18-2.44,3.09c-0.99,0.92-2.08,1.73-3.27,2.44s-2.18,1.39-2.98,2.03c-2.76,2.05-5.5,4.12-8.2,6.18
				c-2.7,2.05-5.42,4.12-8.2,6.17c-1.19,0.88-2.39,1.81-3.58,2.8c-1.19,0.99-2.49,1.68-3.93,2.08c-1.98,0.56-3.68,0.56-5.1,0
				c-1.43-0.56-2.5-1.43-3.21-2.62c-0.71-1.19-1.03-2.6-0.96-4.22c0.08-1.61,0.63-3.23,1.67-4.82L-328-744.91z"/>
		</g>
	</g>
</g>
</svg>
