<?xml version="1.0" encoding="utf-8"?>
<!-- Generator: Adobe Illustrator 23.0.1, SVG Export Plug-In . SVG Version: 6.00 Build 0)  -->
<svg version="1.1" id="Layer_1" xmlns="http://www.w3.org/2000/svg" xmlns:xlink="http://www.w3.org/1999/xlink" x="0px" y="0px"
	 viewBox="0 0 152.36 152.37" style="enable-background:new 0 0 152.36 152.37;" xml:space="preserve">
<style type="text/css">
	.st0{fill:#3A4164;}
	.st1{fill-rule:evenodd;clip-rule:evenodd;fill:#3A4164;}
	.st2{fill:#F88E9F;}
	.st3{fill-rule:evenodd;clip-rule:evenodd;fill:#F88E9F;}
	.st4{enable-background:new    ;}
	.st5{fill:#FFF6CE;}
	.st6{fill-rule:evenodd;clip-rule:evenodd;fill:#FFFFFF;}
	.st7{clip-path:url(#SVGID_2_);}
	.st8{fill:#3A4164;stroke:#3A4164;stroke-linejoin:round;stroke-miterlimit:1.4142;}
	.st9{fill:#FEE7EB;}
	.st10{fill-rule:evenodd;clip-rule:evenodd;fill:#FFF6CE;}
</style>
<path class="st2" d="M147.52,4.84c-3.1-3.1-7.3-4.84-11.69-4.84c-29.3,0-89.99,0-119.29,0C12.15,0,7.94,1.74,4.84,4.84
	C1.74,7.95,0,12.16,0,16.55c0,29.3,0,89.98,0,119.29c0,4.38,1.74,8.59,4.84,11.69c3.1,3.1,7.3,4.84,11.69,4.84
	c29.3,0,89.99,0,119.29,0c4.39,0,8.59-1.74,11.69-4.84c3.11-3.1,4.84-7.31,4.84-11.69c0-29.31,0-89.99,0-119.29
	C152.36,12.16,150.62,7.95,147.52,4.84z M52.15,92.58c-0.5,0.74-1.21,1.28-2.09,1.64c-0.89,0.36-1.92,0.38-3.08,0.07
	c-0.92-0.26-1.75-0.69-2.51-1.3c-0.76-0.6-1.52-1.19-2.28-1.74c-1.78-1.32-3.53-2.65-5.26-3.96c-1.73-1.32-3.47-2.64-5.25-3.96
	c-0.5-0.41-1.13-0.84-1.87-1.3c-0.74-0.45-1.43-0.98-2.09-1.55c-0.66-0.59-1.19-1.23-1.6-1.94c-0.41-0.71-0.56-1.5-0.46-2.36
	c0.21-1.31,0.75-2.35,1.64-3.08c0.89-0.74,1.84-1.48,2.86-2.24c1.72-1.32,3.44-2.66,5.14-4.04c1.7-1.37,3.42-2.75,5.14-4.12
	c1.02-0.81,2.04-1.7,3.08-2.66c1.04-0.96,2.22-1.62,3.54-1.98c1.07-0.26,2-0.21,2.82,0.15c0.81,0.36,1.45,0.89,1.9,1.6
	c0.45,0.71,0.72,1.52,0.8,2.43c0.07,0.92-0.12,1.8-0.57,2.67c-0.26,0.5-0.63,1-1.11,1.48c-0.48,0.48-1.02,0.94-1.6,1.37
	c-0.59,0.43-1.15,0.83-1.68,1.18c-0.54,0.35-0.98,0.65-1.33,0.91c-1.42,1.12-2.83,2.21-4.23,3.27c-1.4,1.07-2.78,2.16-4.15,3.27
	c2.38,1.62,4.71,3.32,6.96,5.1c2.27,1.78,4.53,3.53,6.82,5.25L52,87.13c0.6,0.92,0.91,1.87,0.91,2.86
	C52.91,90.97,52.65,91.84,52.15,92.58z M91.43,51.41c-0.25,0.79-0.55,1.58-0.88,2.37c-0.33,0.79-0.67,1.5-1.03,2.17
	c-0.36,0.66-0.58,1.12-0.69,1.37c-0.76,1.78-1.52,3.54-2.28,5.29c-0.76,1.75-1.52,3.51-2.28,5.29c-2.7,6.24-5.37,12.45-8.04,18.61
	c-2.66,6.17-5.37,12.32-8.1,18.47c-0.41,0.92-1.06,1.56-1.94,1.94c-0.89,0.38-1.8,0.47-2.75,0.26c-0.93-0.2-1.78-0.65-2.51-1.33
	c-0.74-0.69-1.15-1.64-1.25-2.85c-0.11-1.37,0.13-2.61,0.72-3.73c0.59-1.12,1.16-2.34,1.71-3.65c0.76-1.78,1.52-3.55,2.28-5.29
	c0.76-1.75,1.52-3.52,2.29-5.29c0.2-0.46,0.52-1.17,0.95-2.13c0.43-0.97,0.9-2.03,1.41-3.2c0.5-1.17,1.03-2.37,1.56-3.61
	c0.53-1.25,1.03-2.37,1.48-3.39c0.46-1.02,0.83-1.87,1.11-2.55c0.28-0.69,0.42-1.03,0.42-1.03c1.57-3.56,3.12-7.1,4.64-10.62
	c1.52-3.53,3.05-7.05,4.57-10.55l0.31-0.45c0.6-1.02,1.36-1.7,2.28-2.05c0.91-0.36,1.83-0.45,2.74-0.27
	c0.92,0.18,1.72,0.62,2.4,1.33c0.69,0.71,1.08,1.65,1.18,2.82C91.79,49.93,91.69,50.63,91.43,51.41z M126.31,78.38
	c-0.41,0.74-0.93,1.4-1.56,1.98c-0.64,0.59-1.33,1.11-2.09,1.56s-1.4,0.89-1.91,1.3c-1.77,1.31-3.52,2.64-5.25,3.96
	c-1.73,1.31-3.47,2.64-5.25,3.95c-0.76,0.56-1.53,1.16-2.29,1.79c-0.76,0.64-1.6,1.07-2.51,1.33c-1.27,0.36-2.36,0.36-3.27,0
	c-0.92-0.36-1.6-0.92-2.06-1.68c-0.45-0.76-0.66-1.66-0.61-2.7c0.05-1.03,0.41-2.07,1.07-3.08l0.38-0.3
	c2.28-1.68,4.53-3.38,6.74-5.1c2.21-1.73,4.46-3.41,6.74-5.03c-1.37-1.12-2.74-2.21-4.11-3.27c-1.37-1.07-2.77-2.13-4.19-3.2
	c-0.36-0.25-0.79-0.55-1.33-0.91c-0.53-0.36-1.07-0.75-1.64-1.18c-0.55-0.43-1.09-0.88-1.6-1.33c-0.51-0.45-0.89-0.94-1.14-1.45
	c-0.45-0.86-0.66-1.75-0.61-2.66c0.05-0.92,0.29-1.74,0.73-2.48c0.43-0.74,1.05-1.29,1.86-1.67c0.81-0.38,1.75-0.45,2.82-0.19
	c0.91,0.2,1.78,0.65,2.59,1.33c0.81,0.69,1.57,1.31,2.28,1.87c1.17,0.91,2.34,1.83,3.51,2.74c1.17,0.92,2.33,1.85,3.5,2.82
	c0.77,0.6,1.31,1.04,1.64,1.29c0.33,0.26,0.64,0.5,0.92,0.73c0.28,0.22,0.62,0.5,1.03,0.8c0.41,0.3,1.02,0.79,1.83,1.44
	c0.97,0.71,1.84,1.41,2.63,2.1c0.79,0.68,1.31,1.64,1.56,2.85C126.84,76.84,126.72,77.64,126.31,78.38z"/>
</svg>
