<?xml version="1.0" encoding="utf-8"?>
<!-- Generator: Adobe Illustrator 23.0.1, SVG Export Plug-In . SVG Version: 6.00 Build 0)  -->
<svg version="1.1" id="Layer_1" xmlns="http://www.w3.org/2000/svg" xmlns:xlink="http://www.w3.org/1999/xlink" x="0px" y="0px"
	 viewBox="0 0 22.89 22.89" style="enable-background:new 0 0 22.89 22.89;" xml:space="preserve">
<style type="text/css">
	.st0{fill:#3A4164;}
	.st1{fill-rule:evenodd;clip-rule:evenodd;fill:#3A4164;}
	.st2{fill-rule:evenodd;clip-rule:evenodd;fill:#F88E9F;}
	.st3{fill:#F88E9F;}
	.st4{enable-background:new    ;}
	.st5{fill:#FFF6CE;}
	.st6{fill-rule:evenodd;clip-rule:evenodd;fill:#FFFFFF;}
	.st7{clip-path:url(#SVGID_2_);}
	.st8{fill:#3A4164;stroke:#3A4164;stroke-linejoin:round;stroke-miterlimit:1.4142;}
	.st9{fill:#FEE7EB;}
	.st10{fill-rule:evenodd;clip-rule:evenodd;fill:#FFF6CE;}
</style>
<g>
	<g transform="matrix(0.418137,0,0,0.418137,266.22,1267.97)">
		<path class="st9" d="M-604.97-3032.42c11.86,0.11,22.9,10.22,23.01,23.01c0.02,7.04,0.34,14.2-3.14,20.18
			c-4.03,6.92-11.83,11.44-19.87,11.51c-7.03,0.02-14.2,0.34-20.18-3.14c-6.93-4.03-11.44-11.83-11.51-19.88
			c-0.02-7.03-0.34-14.2,3.14-20.18c4.03-6.93,11.83-11.44,19.87-11.51C-610.76-3032.43-607.87-3032.43-604.97-3032.42z
			 M-613.5-3027.6c-9.5,0.03-18.19,8.3-18.34,18.11c-0.06,6.41-0.5,13,2.72,18.22c3.25,5.28,9.3,8.68,15.5,8.73
			c6.26,0.02,12.73,0.5,17.92-2.6c5.34-3.2,8.82-9.24,8.92-15.51c0.06-6.41,0.5-12.99-2.72-18.22c-3.25-5.28-9.3-8.68-15.5-8.73
			C-607.83-3027.61-610.67-3027.6-613.5-3027.6z"/>
	</g>
	<g transform="matrix(0.261336,0,0,0.261336,345.767,1627.37)">
		<path class="st10" d="M-1251.93-6183.35c0-7.25-2.88-14.21-8.01-19.34c-5.13-5.13-12.09-8.01-19.34-8.01c0,0,0,0-0.01,0
			c-7.25,0-14.21,2.88-19.34,8.01c-5.13,5.13-8.01,12.09-8.01,19.34v0c0,7.25,2.88,14.21,8.01,19.34
			c5.13,5.13,12.09,8.01,19.34,8.01c0,0,0,0,0.01,0c7.25,0,14.21-2.88,19.34-8.01C-1254.81-6169.13-1251.93-6176.09-1251.93-6183.35
			L-1251.93-6183.35z"/>
	</g>
</g>
</svg>
