<?xml version="1.0" encoding="UTF-8"?>
<svg width="24px" height="24px" viewBox="0 0 24 24" version="1.1" xmlns="http://www.w3.org/2000/svg" xmlns:xlink="http://www.w3.org/1999/xlink">
    <!-- Generator: Sketch 55 (78076) - https://sketchapp.com -->
    <title>github</title>
    <desc>Created with Sketch.</desc>
    <g id="Page-1" stroke="none" stroke-width="1" fill="none" fill-rule="evenodd">
        <g id="Artboard" transform="translate(-269.000000, -222.000000)" fill="#3A4164">
            <path d="M290.428571,222 L271.571429,222 C270.151786,222 269,223.151786 269,224.571429 L269,243.428571 C269,244.848214 270.151786,246 271.571429,246 L290.428571,246 C291.848214,246 293,244.848214 293,243.428571 L293,224.571429 C293,223.151786 291.848214,222 290.428571,222 Z M283.855357,242.555357 C283.405357,242.635714 283.239286,242.357143 283.239286,242.126786 C283.239286,241.8375 283.25,240.358929 283.25,239.164286 C283.25,238.328571 282.971429,237.798214 282.644643,237.519643 C284.626786,237.3 286.716071,237.026786 286.716071,233.603571 C286.716071,232.628571 286.367857,232.141071 285.8,231.514286 C285.891071,231.283929 286.196429,230.335714 285.708929,229.103571 C284.964286,228.873214 283.260714,230.0625 283.260714,230.0625 C282.553571,229.864286 281.7875,229.7625 281.032143,229.7625 C280.276786,229.7625 279.510714,229.864286 278.803571,230.0625 C278.803571,230.0625 277.1,228.873214 276.355357,229.103571 C275.867857,230.330357 276.167857,231.278571 276.264286,231.514286 C275.696429,232.141071 275.428571,232.628571 275.428571,233.603571 C275.428571,237.010714 277.426786,237.3 279.408929,237.519643 C279.151786,237.75 278.921429,238.146429 278.841071,238.714286 C278.332143,238.944643 277.030357,239.341071 276.253571,237.969643 C275.766071,237.123214 274.8875,237.053571 274.8875,237.053571 C274.019643,237.042857 274.828571,237.6 274.828571,237.6 C275.407143,237.867857 275.814286,238.896429 275.814286,238.896429 C276.333929,240.4875 278.819643,239.951786 278.819643,239.951786 C278.819643,240.696429 278.830357,241.907143 278.830357,242.126786 C278.830357,242.357143 278.669643,242.635714 278.214286,242.555357 C274.678571,241.371429 272.203571,238.007143 272.203571,234.075 C272.203571,229.157143 275.964286,225.423214 280.882143,225.423214 C285.8,225.423214 289.785714,229.157143 289.785714,234.075 C289.791071,238.007143 287.391071,241.376786 283.855357,242.555357 Z M278.6,239.282143 C278.498214,239.303571 278.401786,239.260714 278.391071,239.191071 C278.380357,239.110714 278.45,239.041071 278.551786,239.019643 C278.653571,239.008929 278.75,239.051786 278.760714,239.121429 C278.776786,239.191071 278.707143,239.260714 278.6,239.282143 Z M278.091071,239.233929 C278.091071,239.303571 278.010714,239.3625 277.903571,239.3625 C277.785714,239.373214 277.705357,239.314286 277.705357,239.233929 C277.705357,239.164286 277.785714,239.105357 277.892857,239.105357 C277.994643,239.094643 278.091071,239.153571 278.091071,239.233929 Z M277.357143,239.175 C277.335714,239.244643 277.228571,239.276786 277.1375,239.244643 C277.035714,239.223214 276.966071,239.142857 276.9875,239.073214 C277.008929,239.003571 277.116071,238.971429 277.207143,238.992857 C277.314286,239.025 277.383929,239.105357 277.357143,239.175 Z M276.698214,238.885714 C276.65,238.944643 276.548214,238.933929 276.467857,238.853571 C276.3875,238.783929 276.366071,238.682143 276.419643,238.633929 C276.467857,238.575 276.569643,238.585714 276.65,238.666071 C276.719643,238.735714 276.746429,238.842857 276.698214,238.885714 Z M276.210714,238.398214 C276.1625,238.430357 276.071429,238.398214 276.0125,238.317857 C275.953571,238.2375 275.953571,238.146429 276.0125,238.108929 C276.071429,238.060714 276.1625,238.098214 276.210714,238.178571 C276.269643,238.258929 276.269643,238.355357 276.210714,238.398214 L276.210714,238.398214 Z M275.8625,237.878571 C275.814286,237.926786 275.733929,237.9 275.675,237.846429 C275.616071,237.776786 275.605357,237.696429 275.653571,237.658929 C275.701786,237.610714 275.782143,237.6375 275.841071,237.691071 C275.9,237.760714 275.910714,237.841071 275.8625,237.878571 Z M275.503571,237.482143 C275.482143,237.530357 275.4125,237.541071 275.353571,237.503571 C275.283929,237.471429 275.251786,237.4125 275.273214,237.364286 C275.294643,237.332143 275.353571,237.316071 275.423214,237.342857 C275.492857,237.380357 275.525,237.439286 275.503571,237.482143 Z" id="github"></path>
        </g>
    </g>
</svg>