<?xml version="1.0" encoding="utf-8"?>
<!-- Generator: Adobe Illustrator 23.0.1, SVG Export Plug-In . SVG Version: 6.00 Build 0)  -->
<svg version="1.1" id="Layer_1" xmlns="http://www.w3.org/2000/svg" xmlns:xlink="http://www.w3.org/1999/xlink" x="0px" y="0px"
	 viewBox="0 0 152.36 152.37" style="enable-background:new 0 0 152.36 152.37;" xml:space="preserve">
<style type="text/css">
	.st0{fill:#3A4164;}
	.st1{fill-rule:evenodd;clip-rule:evenodd;fill:#3A4164;}
	.st2{fill:#F88E9F;}
	.st3{fill-rule:evenodd;clip-rule:evenodd;fill:#F88E9F;}
	.st4{enable-background:new    ;}
	.st5{fill:#FFF6CE;}
	.st6{fill-rule:evenodd;clip-rule:evenodd;fill:#FFFFFF;}
	.st7{clip-path:url(#SVGID_2_);}
	.st8{fill:#3A4164;stroke:#3A4164;stroke-linejoin:round;stroke-miterlimit:1.4142;}
	.st9{fill:#FEE7EB;}
	.st10{fill-rule:evenodd;clip-rule:evenodd;fill:#FFF6CE;}
</style>
<path class="st2" d="M147.52,4.84c-3.1-3.1-7.3-4.84-11.69-4.84c-29.3,0-89.99,0-119.29,0C12.15,0,7.94,1.74,4.84,4.84
	C1.74,7.95,0,12.16,0,16.55c0,29.3,0,89.98,0,119.29c0,4.38,1.74,8.59,4.84,11.69c3.1,3.1,7.3,4.84,11.69,4.84
	c29.3,0,89.99,0,119.29,0c4.39,0,8.59-1.74,11.69-4.84c3.11-3.1,4.84-7.31,4.84-11.69c0-29.31,0-89.99,0-119.29
	C152.36,12.16,150.62,7.95,147.52,4.84z M47.61,32.04c5.23,0,9.47,4.24,9.47,9.48c0,5.23-4.24,9.47-9.47,9.47
	c-5.23,0-9.47-4.24-9.47-9.47C38.14,36.28,42.38,32.04,47.61,32.04z M111.05,120.27c-7.28,0.31-14.96-4.09-15.41-12.83
	c-0.13-2.55,0.19-5.14,0.96-7.56l0.04-0.12c1.71-6.48,3.52-12.93,5.19-19.41c1.41-5.89-5.07-12.51-13.08-8.32
	c-5.74,2.99-7.21,10.68-8.51,16.1c-2.44,10.08-5.02,20.14-7.57,30.2l-0.31,1.18H56.47c0,0,4.21-12.61,2.38-9.72
	c-4.95,7.69-14.75,12.84-23.68,9.51c-5.66-2.12-8.66-8.62-7.84-15.18c1.36-10.91,4.64-21.54,7.64-32.23l0.09-0.31H24.19l3.53-12.66
	h26.21L43.4,101.58c-0.03,0.11-0.07,0.21-0.1,0.31c-0.73,2.46-1.17,5.53,0.88,7.05c2.79,2.06,6.39,0.17,9.05-0.96
	c4.37-1.88,7.76-6.19,9.01-10.65c0,0,1.11-4.41,1.98-7.92c1.24-5.02,2.48-10.05,3.71-15.07l0.68-2.75H57.56l3.5-12.66h23.78
	c0,0-4.32,15.22-2.39,11.97c4-6.64,10.15-12.42,18.17-13.1c0.53-0.04,1.07-0.06,1.6-0.06c9.1,0.12,16.33,8.86,15.7,18.57
	c-0.56,8.67-3.62,17-5.94,25.26c-0.99,3.56-1.02,8.94,3.09,8.02c3.52-0.79,5.34-5.61,6.73-9.72l6.38,2.37
	C126.32,110.94,120.69,119.86,111.05,120.27z"/>
</svg>
