<?xml version="1.0" encoding="utf-8"?>
<!-- Generator: Adobe Illustrator 23.0.1, SVG Export Plug-In . SVG Version: 6.00 Build 0)  -->
<svg version="1.1" id="Layer_1" xmlns="http://www.w3.org/2000/svg" xmlns:xlink="http://www.w3.org/1999/xlink" x="0px" y="0px"
	 viewBox="0 0 152.36 152.37" style="enable-background:new 0 0 152.36 152.37;" xml:space="preserve">
<style type="text/css">
	.st0{fill:#3A4164;stroke:#3A4164;stroke-linejoin:round;stroke-miterlimit:1.4142;}
	.st1{fill:#3A4164;}
	.st2{fill-rule:evenodd;clip-rule:evenodd;fill:#3A4164;}
	.st3{fill-rule:evenodd;clip-rule:evenodd;fill:#F88E9F;}
	.st4{fill:#F88E9F;}
</style>
<g id="in" transform="matrix(0.640466,0,0,0.640466,764.145,601.648)">
	<g transform="matrix(1.12221,0,0,1.12221,-145.347,-223.522)">
		<path class="st3" d="M-721.68-614.89c0-6.11-2.41-11.96-6.74-16.28c-4.31-4.31-10.16-6.74-16.27-6.74c-40.76,0-125.2,0-165.97,0
			c-6.11,0-11.96,2.43-16.27,6.74c-4.33,4.33-6.74,10.17-6.74,16.28c0,40.76,0,125.19,0,165.97c0,6.09,2.41,11.96,6.74,16.27
			c4.31,4.31,10.16,6.74,16.27,6.74c40.76,0,125.2,0,165.97,0c6.11,0,11.96-2.43,16.27-6.74c4.33-4.31,6.74-10.17,6.74-16.27
			C-721.68-489.7-721.68-574.13-721.68-614.89z"/>
	</g>
	<g transform="matrix(1,0,0,1,4.07822,-250.269)">
		<path class="st2" d="M-1084.21-502.51h-24.8c0,0,6.57-19.69,3.72-15.17c-7.73,12.01-23.03,20.05-36.97,14.85
			c-8.84-3.31-13.52-13.45-12.24-23.71c2.12-17.03,7.24-33.63,11.93-50.32l0.14-0.48h-16.99l5.51-19.77h40.92l-16.44,66.58
			c-0.05,0.17-0.1,0.32-0.15,0.49c-1.14,3.83-1.82,8.64,1.38,11c4.36,3.21,9.98,0.27,14.13-1.5c6.83-2.93,12.11-9.67,14.07-16.63
			c0,0,1.73-6.88,3.09-12.37c1.94-7.84,3.87-15.69,5.8-23.52l1.06-4.29h-17.26l5.46-19.77h37.13c0,0-6.75,23.77-3.73,18.68
			c6.25-10.37,15.84-19.39,28.37-20.45c0.83-0.06,1.67-0.09,2.49-0.09c14.22,0.18,25.5,13.83,24.51,29
			c-0.88,13.53-5.66,26.55-9.27,39.44c-1.55,5.55-1.59,13.96,4.83,12.52c5.5-1.23,8.34-8.75,10.51-15.18l9.97,3.69
			c-2.91,13.58-11.68,27.51-26.74,28.15c-11.36,0.48-23.36-6.38-24.05-20.04c-0.21-3.98,0.3-8.02,1.5-11.8l0.06-0.18
			c2.67-10.11,5.5-20.19,8.1-30.3c2.19-9.19-7.91-19.54-20.43-12.99c-8.96,4.67-11.26,16.67-13.29,25.14
			c-3.81,15.74-7.84,31.44-11.83,47.15L-1084.21-502.51z M-1122.85-639.09c8.16,0,14.78,6.62,14.78,14.8
			c0,8.16-6.62,14.78-14.78,14.78c-8.16,0-14.78-6.62-14.78-14.78C-1137.63-632.47-1131.01-639.09-1122.85-639.09z"/>
	</g>
</g>
</svg>
