<?xml version="1.0" encoding="utf-8"?>
<!-- Generator: Adobe Illustrator 23.0.1, SVG Export Plug-In . SVG Version: 6.00 Build 0)  -->
<svg version="1.1" id="Layer_1" xmlns="http://www.w3.org/2000/svg" xmlns:xlink="http://www.w3.org/1999/xlink" x="0px" y="0px"
	 viewBox="0 0 364.64 294.46" style="enable-background:new 0 0 364.64 294.46;" xml:space="preserve">
<style type="text/css">
	.st0{fill:#3A4164;}
	.st1{fill-rule:evenodd;clip-rule:evenodd;fill:#3A4164;}
	.st2{fill:#F88E9F;}
	.st3{fill-rule:evenodd;clip-rule:evenodd;fill:#F88E9F;}
	.st4{enable-background:new    ;}
	.st5{fill:#FFF6CE;}
	.st6{fill-rule:evenodd;clip-rule:evenodd;fill:#FFFFFF;}
	.st7{clip-path:url(#SVGID_2_);}
	.st8{fill:#3A4164;stroke:#3A4164;stroke-linejoin:round;stroke-miterlimit:1.4142;}
	.st9{fill:#FEE7EB;}
	.st10{fill-rule:evenodd;clip-rule:evenodd;fill:#FFF6CE;}
</style>
<g transform="matrix(3.02134,-0.146532,0.146532,3.02134,-5233.83,-3470.18)">
	<g class="st4">
		<path class="st5" d="M1695.59,1281.54l2.19,0c5.94,0,11.27,2.27,16.01,6.8c4.74,4.53,7.11,10.18,7.11,16.95
			c0,6.67-2.37,12.16-7.11,16.48c-4.74,4.32-10.6,6.48-17.58,6.48c-7.6,0-13.93-3.05-18.98-9.14c-5.05-6.09-7.58-14.76-7.58-26.01
			c0-10.31,2.21-19.97,6.64-28.98c4.43-9.01,9.84-16.14,16.25-21.4c6.41-5.26,12.11-7.89,17.11-7.89c3.33,0,5.94,0.99,7.81,2.97
			c1.87,1.98,2.81,4.53,2.81,7.66c0,4.58-2.03,7.97-6.09,10.15c-5.52,3.02-9.9,6.56-13.12,10.62
			C1697.83,1270.29,1696.01,1275.39,1695.59,1281.54z M1764.64,1281.54l2.03,0c5.83,0,11.12,2.27,15.86,6.8
			c4.74,4.53,7.11,10.18,7.11,16.95c0,6.56-2.37,12.08-7.11,16.56c-4.74,4.48-10.6,6.72-17.58,6.72c-7.71,0-14.06-3.12-19.06-9.37
			c-5-6.25-7.5-14.94-7.5-26.09c0-8.02,1.3-15.57,3.91-22.65c2.6-7.08,5.96-13.25,10.08-18.51c4.11-5.26,8.54-9.42,13.28-12.5
			c4.74-3.07,8.98-4.61,12.73-4.61c3.44,0,6.07,0.96,7.89,2.89c1.82,1.93,2.73,4.51,2.73,7.73c0,4.69-2.03,8.07-6.09,10.15
			c-5.73,3.23-10.05,6.8-12.97,10.7C1767.04,1270.21,1765.27,1275.29,1764.64,1281.54z"/>
	</g>
</g>
</svg>
