<?xml version="1.0" encoding="utf-8"?>
<!-- Generator: Adobe Illustrator 23.0.1, SVG Export Plug-In . SVG Version: 6.00 Build 0)  -->
<svg version="1.1" id="Layer_1" xmlns="http://www.w3.org/2000/svg" xmlns:xlink="http://www.w3.org/1999/xlink" x="0px" y="0px"
	 viewBox="0 0 167.44 152.37" style="enable-background:new 0 0 167.44 152.37;" xml:space="preserve">
<style type="text/css">
	.st0{fill:#3A4164;stroke:#3A4164;stroke-linejoin:round;stroke-miterlimit:1.4142;}
	.st1{fill:#3A4164;}
	.st2{fill-rule:evenodd;clip-rule:evenodd;fill:#3A4164;}
	.st3{fill-rule:evenodd;clip-rule:evenodd;fill:#F88E9F;}
	.st4{fill:#F88E9F;}
</style>
<g transform="matrix(0.615813,0,0,0.615813,350.774,644.397)">
	<g id="sketch">
		<path class="st4" d="M-434.16-1046.33l0.66-0.06c0,0,0.45-0.03,0.99-0.03c1.19,0.09,1.83,0.23,2.4,0.45l82.12,7.42
			c0,0,0.96,0.14,1.92,0.46c0.37-0.05,0.76-0.06,1.14-0.06c2.62,0.22,4.97,1.67,6.34,3.9l39.69,69.62c1.7,3.2,1.15,3.94,0.87,5.36
			c-0.25,1.19-0.79,2.3-1.54,3.24c-0.21,0.44-0.46,0.86-0.77,1.27l-123.01,151.21c-1.45,1.63-2.05,1.89-3.19,2.32
			c-1.15,0.45-2.38,0.54-3.56,0.34c-3.09,2.53-8.03,2.67-10.86-0.41c-0.83-0.27-1.6-0.68-2.29-1.29c-0.45-0.39-0.53-0.52-0.93-0.96
			l-123.01-151.21c-0.49-0.66-0.86-1.23-1.13-1.72c-1.39-2.13-1.72-4.96-0.72-7.32c0.16-0.37,0.22-0.46,0.41-0.83l39.69-69.62
			c1.52-2.5,4.2-4,7.24-3.89l0.1,0.01c0.34-0.14,0.69-0.25,1.05-0.32c0.44-0.1,0.56-0.1,1.01-0.15l82.93-7.51
			c0.35-0.09,0.72-0.15,1.08-0.19C-434.7-1046.39-434.41-1046.35-434.16-1046.33z M-385.45-950.79h-99.51l49.76,123.58
			L-385.45-950.79z M-364.37-951.89l-39.38,99.7l81.11-99.7C-336.54-951.89-350.46-951.89-364.37-951.89z M-503.15-951.89h-41.74
			l81.12,99.7L-503.15-951.89z M-480.14-966.48h89.87l-44.93-55.67L-480.14-966.48z M-548.56-968.53h39.16l-14.6-43.06
			C-532.19-997.24-540.38-982.89-548.56-968.53z M-358.12-968.53h39.16l-24.56-43.06C-348.38-997.24-353.25-982.89-358.12-968.53z
			 M-373.81-974.86l14.94-49.1l-58.45-5.28C-402.82-1011.12-388.31-992.99-373.81-974.86z M-508.66-1024.03l14.95,49.17l43.52-54.46
			C-469.68-1027.55-489.17-1025.8-508.66-1024.03z"/>
	</g>
</g>
</svg>
