<?xml version="1.0" encoding="UTF-8"?>
<svg width="24px" height="24px" viewBox="0 0 24 24" version="1.1" xmlns="http://www.w3.org/2000/svg" xmlns:xlink="http://www.w3.org/1999/xlink">
    <!-- Generator: Sketch 55 (78076) - https://sketchapp.com -->
    <title>steam</title>
    <desc>Created with Sketch.</desc>
    <g id="Page-1" stroke="none" stroke-width="1" fill="none" fill-rule="evenodd">
        <g id="Artboard" transform="translate(-303.000000, -222.000000)" fill="#3A4164">
            <path d="M312.921429,239.383929 C313.333929,238.392857 312.867857,237.257143 311.871429,236.844643 L310.291071,236.191071 C310.901786,235.960714 311.592857,235.95 312.241071,236.217857 C312.894643,236.491071 313.398214,237 313.671429,237.648214 C313.939286,238.301786 313.939286,239.019643 313.666071,239.667857 C313.103571,241.0125 311.555357,241.65 310.205357,241.0875 C309.583929,240.830357 309.1125,240.358929 308.844643,239.791071 L310.371429,240.423214 C311.367857,240.841071 312.508929,240.375 312.921429,239.383929 L312.921429,239.383929 Z M324.428571,222 L305.571429,222 C304.151786,222 303,223.151786 303,224.571429 L303,233.180357 L309.246429,235.757143 C309.889286,235.317857 310.65,235.108929 311.426786,235.151786 L314.394643,230.855357 L314.394643,230.796429 C314.394643,228.214286 316.5,226.108929 319.0875,226.108929 C321.675,226.108929 323.780357,228.214286 323.780357,230.796429 C323.780357,233.432143 321.589286,235.548214 318.980357,235.483929 L314.748214,238.5 C314.833929,240.5625 313.189286,242.185714 311.228571,242.185714 C309.525,242.185714 308.094643,240.969643 307.773214,239.3625 L303,237.385714 L303,243.428571 C303,244.848214 304.151786,246 305.571429,246 L324.428571,246 C325.848214,246 327,244.848214 327,243.428571 L327,224.571429 C327,223.151786 325.848214,222 324.428571,222 Z M319.0875,233.919643 C317.3625,233.919643 315.958929,232.521429 315.958929,230.796429 C315.958929,229.071429 317.3625,227.673214 319.0875,227.673214 C320.8125,227.673214 322.216071,229.076786 322.216071,230.796429 C322.216071,232.516071 320.8125,233.919643 319.0875,233.919643 Z M319.092857,233.1375 C320.389286,233.1375 321.444643,232.0875 321.444643,230.791071 C321.444643,229.494643 320.394643,228.444643 319.092857,228.444643 C317.796429,228.444643 316.741071,229.494643 316.741071,230.791071 C316.741071,232.0875 317.796429,233.1375 319.092857,233.1375 L319.092857,233.1375 Z" id="steam"></path>
        </g>
    </g>
</svg>