<?xml version="1.0" encoding="utf-8"?>
<!-- Generator: Adobe Illustrator 23.0.1, SVG Export Plug-In . SVG Version: 6.00 Build 0)  -->
<svg version="1.1" id="Layer_1" xmlns="http://www.w3.org/2000/svg" xmlns:xlink="http://www.w3.org/1999/xlink" x="0px" y="0px"
	 viewBox="0 0 152.5 152.5" style="enable-background:new 0 0 152.5 152.5;" xml:space="preserve">
<style type="text/css">
	.st0{fill:#3A4164;stroke:#3A4164;stroke-linejoin:round;stroke-miterlimit:1.4142;}
	.st1{fill:#3A4164;}
	.st2{fill-rule:evenodd;clip-rule:evenodd;fill:#3A4164;}
	.st3{fill-rule:evenodd;clip-rule:evenodd;fill:#F88E9F;}
	.st4{fill:#F88E9F;}
</style>
<g id="xd" transform="matrix(0.640466,0,0,0.640466,164.168,602.027)">
	<g transform="matrix(1.01682,0,0,1.01682,-96.5214,-135.309)">
		<path class="st4" d="M26.43-791.26c26.29,0.25,50.21,22.76,50.47,50.47c0.14,44.34,0.14,88.68,0,133.01
			c-0.25,26.29-22.76,50.21-50.47,50.47c-44.34,0.14-88.68,0.14-133.01,0c-26.34-0.25-50.21-23.09-50.47-50.47
			c-0.14-44.34-0.14-88.68,0-133.01c0.25-26.34,23.09-50.21,50.47-50.47C-62.25-791.4-17.91-791.4,26.43-791.26z M-106.23-775.39
			c-18.09,0.06-34.77,15.65-34.95,34.71c-0.14,44.34-0.4,88.69,0,133.03c0.28,17.9,15.71,34.19,34.49,34.49
			c44.42,0.41,88.83,0.41,133.25,0c17.88-0.28,34.19-15.7,34.49-34.49c0.41-44.42,0.41-88.83,0-133.25
			c-0.28-17.88-15.71-34.19-34.49-34.49C-17.71-775.79-61.97-775.39-106.23-775.39z"/>
	</g>
	<g transform="matrix(1,0,0,1,3.88077,-199.013)">
		<path class="st4" d="M-68.29-675.25c0.13,35-0.35,61.7,0.03,96.59c0.01,1.78,0.5,4.3,0.52,4.44c0.04,2.16-5.23,3.37-10.38,4.67
			c-16.49,4.18-36.09,2.93-46.22-11.89c-5.99-8.77-7.26-20.1-6.73-30.17c0.65-12.06,5.29-24.44,16.53-31.36
			c8.35-5.14,18.62-6.89,28.07-6.04l0.28,0.03v-27.37h17.92C-68.28-675.99-68.29-675.63-68.29-675.25z M-135.06-568.94h-20.32
			l-20.1-41.73l-19.57,41.73l-19.48,0.5l28.35-53.93l-27.02-54h19.83c6.39,13.69,12.78,27.37,19.17,41.06l18.82-41.06h18.84
			l-27.2,52.32L-135.06-568.94z M-91.54-634.3c-7.37,0.05-13.7,2.52-18.31,10.86c-4.31,7.81-4.3,22.04,0,30.42
			c5.53,10.76,16.94,10.68,23.83,9.01v-49.32C-86.01-633.33-88.19-634.34-91.54-634.3z"/>
	</g>
</g>
</svg>
